<?xml version="1.0" standalone="no"?>
<!DOCTYPE svg PUBLIC "-//W3C//DTD SVG 20010904//EN"
 "http://www.w3.org/TR/2001/REC-SVG-20010904/DTD/svg10.dtd">
<svg version="1.0" xmlns="http://www.w3.org/2000/svg"
 width="1080.000000pt" height="1080.000000pt" viewBox="0 0 1080.000000 1080.000000"
 preserveAspectRatio="xMidYMid meet">

<g transform="translate(0.000000,1080.000000) scale(0.100000,-0.100000)"
fill="#000000" stroke="none">
<path d="M0 5400 l0 -5400 5400 0 5400 0 0 5400 0 5400 -5400 0 -5400 0 0
-5400z m8365 2770 l950 -950 -190 -190 c-104 -104 -196 -190 -204 -190 -8 0
-481 110 -1051 245 -571 135 -1045 245 -1053 245 -9 0 -21 -8 -26 -17 -9 -15
90 -118 642 -670 l652 -653 -180 -180 -180 -180 -953 953 -952 952 214 214
214 213 973 -226 c536 -124 985 -227 998 -228 13 -2 28 4 35 15 9 15 -69 97
-599 627 l-610 610 180 180 c99 99 182 180 185 180 3 0 433 -427 955 -950z
m-2090 -2090 l950 -950 -178 -177 -177 -178 -629 629 c-546 546 -632 628 -645
617 -9 -8 -16 -17 -16 -21 0 -5 182 -385 405 -845 223 -461 405 -843 405 -849
0 -6 -69 -80 -153 -164 l-153 -152 -848 410 c-467 225 -852 410 -855 410 -3 0
-11 -8 -18 -18 -10 -17 61 -91 618 -648 l629 -629 -167 -167 c-92 -93 -172
-168 -178 -168 -13 0 -1895 1882 -1895 1895 0 6 109 119 243 252 l242 241 940
-459 c813 -398 941 -457 953 -445 13 13 -47 140 -446 953 l-460 938 236 238
c130 130 239 237 242 237 3 0 433 -427 955 -950z m-2561 -2561 l629 -1270
-224 -225 c-123 -123 -227 -224 -232 -224 -9 0 -2519 1241 -2532 1252 -9 8
371 398 388 398 5 0 430 -214 944 -475 943 -479 963 -489 963 -441 0 6 -216
430 -479 941 l-479 930 191 193 c106 105 194 192 197 192 3 0 288 -572 634
-1271z"/>
</g>
</svg>
